<mxfile host="app.diagrams.net" modified="2023-03-01T08:26:48.022Z" agent="5.0 (Windows NT 10.0; Win64; x64) AppleWebKit/537.36 (KHTML, like Gecko) Chrome/110.0.0.0 Safari/537.36 Edg/110.0.1587.56" etag="aqTA7UrcOY2mHJBwwOrs" version="20.8.20" type="github">
  <diagram name="Page-1" id="Oo7u0xG0_2dbUXuWmA7k">
    <mxGraphModel dx="936" dy="560" grid="1" gridSize="10" guides="1" tooltips="1" connect="1" arrows="1" fold="1" page="1" pageScale="1" pageWidth="827" pageHeight="1169" math="0" shadow="0">
      <root>
        <mxCell id="0" />
        <mxCell id="1" parent="0" />
        <mxCell id="iiZBQHs3JOUuA9xSX9nN-15" style="edgeStyle=orthogonalEdgeStyle;rounded=0;orthogonalLoop=1;jettySize=auto;html=1;exitX=1;exitY=0.5;exitDx=0;exitDy=0;entryX=0;entryY=0.5;entryDx=0;entryDy=0;" edge="1" parent="1" source="iiZBQHs3JOUuA9xSX9nN-1" target="iiZBQHs3JOUuA9xSX9nN-2">
          <mxGeometry relative="1" as="geometry" />
        </mxCell>
        <mxCell id="iiZBQHs3JOUuA9xSX9nN-1" value="图像预处理" style="rounded=1;whiteSpace=wrap;html=1;" vertex="1" parent="1">
          <mxGeometry x="100" y="320" width="120" height="60" as="geometry" />
        </mxCell>
        <mxCell id="iiZBQHs3JOUuA9xSX9nN-22" style="edgeStyle=orthogonalEdgeStyle;rounded=0;orthogonalLoop=1;jettySize=auto;html=1;exitX=1;exitY=0.5;exitDx=0;exitDy=0;" edge="1" parent="1" source="iiZBQHs3JOUuA9xSX9nN-2" target="iiZBQHs3JOUuA9xSX9nN-19">
          <mxGeometry relative="1" as="geometry" />
        </mxCell>
        <mxCell id="iiZBQHs3JOUuA9xSX9nN-2" value="人脸检测" style="rounded=1;whiteSpace=wrap;html=1;" vertex="1" parent="1">
          <mxGeometry x="290" y="320" width="120" height="60" as="geometry" />
        </mxCell>
        <mxCell id="iiZBQHs3JOUuA9xSX9nN-18" style="edgeStyle=orthogonalEdgeStyle;rounded=0;orthogonalLoop=1;jettySize=auto;html=1;exitX=1;exitY=0.5;exitDx=0;exitDy=0;" edge="1" parent="1" source="iiZBQHs3JOUuA9xSX9nN-3" target="iiZBQHs3JOUuA9xSX9nN-5">
          <mxGeometry relative="1" as="geometry" />
        </mxCell>
        <mxCell id="iiZBQHs3JOUuA9xSX9nN-3" value="人脸对齐" style="rounded=1;whiteSpace=wrap;html=1;" vertex="1" parent="1">
          <mxGeometry x="550" y="230" width="120" height="60" as="geometry" />
        </mxCell>
        <mxCell id="iiZBQHs3JOUuA9xSX9nN-4" value="人脸活体检测" style="rounded=1;whiteSpace=wrap;html=1;" vertex="1" parent="1">
          <mxGeometry x="550" y="400" width="120" height="60" as="geometry" />
        </mxCell>
        <mxCell id="iiZBQHs3JOUuA9xSX9nN-5" value="人脸识别" style="rounded=1;whiteSpace=wrap;html=1;" vertex="1" parent="1">
          <mxGeometry x="747" y="230" width="120" height="60" as="geometry" />
        </mxCell>
        <mxCell id="iiZBQHs3JOUuA9xSX9nN-6" value="原始图像" style="rounded=1;whiteSpace=wrap;html=1;" vertex="1" parent="1">
          <mxGeometry x="80" y="855" width="120" height="60" as="geometry" />
        </mxCell>
        <mxCell id="iiZBQHs3JOUuA9xSX9nN-7" value="人脸区域" style="rounded=1;whiteSpace=wrap;html=1;" vertex="1" parent="1">
          <mxGeometry x="250" y="855" width="120" height="60" as="geometry" />
        </mxCell>
        <mxCell id="iiZBQHs3JOUuA9xSX9nN-12" value="" style="swimlane;startSize=0;" vertex="1" parent="1">
          <mxGeometry x="420" y="770" width="350" height="115" as="geometry" />
        </mxCell>
        <mxCell id="iiZBQHs3JOUuA9xSX9nN-9" value="特征向量" style="rounded=1;whiteSpace=wrap;html=1;" vertex="1" parent="iiZBQHs3JOUuA9xSX9nN-12">
          <mxGeometry x="200" y="40" width="120" height="60" as="geometry" />
        </mxCell>
        <mxCell id="iiZBQHs3JOUuA9xSX9nN-8" value="对齐的人脸区域" style="rounded=1;whiteSpace=wrap;html=1;" vertex="1" parent="iiZBQHs3JOUuA9xSX9nN-12">
          <mxGeometry x="30" y="40" width="120" height="60" as="geometry" />
        </mxCell>
        <mxCell id="iiZBQHs3JOUuA9xSX9nN-13" value="" style="swimlane;startSize=0;" vertex="1" parent="1">
          <mxGeometry x="420" y="915" width="350" height="120" as="geometry" />
        </mxCell>
        <mxCell id="iiZBQHs3JOUuA9xSX9nN-10" value="" style="rounded=1;whiteSpace=wrap;html=1;" vertex="1" parent="iiZBQHs3JOUuA9xSX9nN-13">
          <mxGeometry x="30" y="45" width="120" height="60" as="geometry" />
        </mxCell>
        <mxCell id="iiZBQHs3JOUuA9xSX9nN-14" value="人脸反欺诈的内容" style="text;html=1;align=center;verticalAlign=middle;resizable=0;points=[];autosize=1;strokeColor=none;fillColor=none;" vertex="1" parent="iiZBQHs3JOUuA9xSX9nN-13">
          <mxGeometry x="105" width="120" height="30" as="geometry" />
        </mxCell>
        <mxCell id="iiZBQHs3JOUuA9xSX9nN-23" style="edgeStyle=orthogonalEdgeStyle;rounded=0;orthogonalLoop=1;jettySize=auto;html=1;exitX=1;exitY=0.5;exitDx=0;exitDy=0;exitPerimeter=0;entryX=0;entryY=0.5;entryDx=0;entryDy=0;" edge="1" parent="1" source="iiZBQHs3JOUuA9xSX9nN-19" target="iiZBQHs3JOUuA9xSX9nN-4">
          <mxGeometry relative="1" as="geometry" />
        </mxCell>
        <mxCell id="iiZBQHs3JOUuA9xSX9nN-24" style="edgeStyle=orthogonalEdgeStyle;rounded=0;orthogonalLoop=1;jettySize=auto;html=1;exitX=1;exitY=0.5;exitDx=0;exitDy=0;exitPerimeter=0;entryX=0;entryY=0.5;entryDx=0;entryDy=0;" edge="1" parent="1" source="iiZBQHs3JOUuA9xSX9nN-19" target="iiZBQHs3JOUuA9xSX9nN-3">
          <mxGeometry relative="1" as="geometry" />
        </mxCell>
        <mxCell id="iiZBQHs3JOUuA9xSX9nN-19" value="得到的人脸图像" style="verticalLabelPosition=bottom;verticalAlign=top;html=1;shape=mxgraph.basic.smiley" vertex="1" parent="1">
          <mxGeometry x="440" y="332.5" width="45" height="35" as="geometry" />
        </mxCell>
        <mxCell id="iiZBQHs3JOUuA9xSX9nN-25" value="" style="swimlane;startSize=0;&#xa;dotted" vertex="1" parent="1">
          <mxGeometry x="100" y="50" width="130" height="150" as="geometry" />
        </mxCell>
        <mxCell id="iiZBQHs3JOUuA9xSX9nN-34" value="" style="edgeStyle=orthogonalEdgeStyle;rounded=0;orthogonalLoop=1;jettySize=auto;html=1;" edge="1" parent="iiZBQHs3JOUuA9xSX9nN-25" source="iiZBQHs3JOUuA9xSX9nN-31" target="iiZBQHs3JOUuA9xSX9nN-32">
          <mxGeometry relative="1" as="geometry" />
        </mxCell>
        <mxCell id="iiZBQHs3JOUuA9xSX9nN-31" value="读入图像" style="rounded=0;whiteSpace=wrap;html=1;" vertex="1" parent="iiZBQHs3JOUuA9xSX9nN-25">
          <mxGeometry x="20" y="10" width="90" height="50" as="geometry" />
        </mxCell>
        <mxCell id="iiZBQHs3JOUuA9xSX9nN-32" value="压缩图像" style="rounded=0;whiteSpace=wrap;html=1;" vertex="1" parent="iiZBQHs3JOUuA9xSX9nN-25">
          <mxGeometry x="20" y="90" width="90" height="50" as="geometry" />
        </mxCell>
        <mxCell id="iiZBQHs3JOUuA9xSX9nN-26" value="" style="swimlane;startSize=0;" vertex="1" parent="1">
          <mxGeometry x="110" y="490" width="310" height="150" as="geometry" />
        </mxCell>
        <mxCell id="iiZBQHs3JOUuA9xSX9nN-27" value="" style="swimlane;startSize=0;" vertex="1" parent="1">
          <mxGeometry x="270" y="50" width="300" height="150" as="geometry" />
        </mxCell>
        <mxCell id="iiZBQHs3JOUuA9xSX9nN-35" value="二值化" style="rounded=0;whiteSpace=wrap;html=1;" vertex="1" parent="iiZBQHs3JOUuA9xSX9nN-27">
          <mxGeometry x="10" y="40" width="60" height="50" as="geometry" />
        </mxCell>
        <mxCell id="iiZBQHs3JOUuA9xSX9nN-38" value="&lt;b&gt;SCRFD&lt;/b&gt;" style="text;html=1;strokeColor=none;fillColor=none;align=center;verticalAlign=middle;whiteSpace=wrap;rounded=0;fontSize=14;" vertex="1" parent="iiZBQHs3JOUuA9xSX9nN-27">
          <mxGeometry x="114" y="10" width="60" height="30" as="geometry" />
        </mxCell>
        <mxCell id="iiZBQHs3JOUuA9xSX9nN-39" style="edgeStyle=orthogonalEdgeStyle;rounded=0;orthogonalLoop=1;jettySize=auto;html=1;exitX=0.5;exitY=1;exitDx=0;exitDy=0;fontSize=14;" edge="1" parent="iiZBQHs3JOUuA9xSX9nN-27" source="iiZBQHs3JOUuA9xSX9nN-35" target="iiZBQHs3JOUuA9xSX9nN-35">
          <mxGeometry relative="1" as="geometry" />
        </mxCell>
        <mxCell id="iiZBQHs3JOUuA9xSX9nN-28" value="" style="swimlane;startSize=0;" vertex="1" parent="1">
          <mxGeometry x="640" y="50" width="227" height="150" as="geometry" />
        </mxCell>
        <mxCell id="iiZBQHs3JOUuA9xSX9nN-36" value="&lt;h1 style=&quot;box-sizing: border-box; outline: 0px; margin: 0px; padding: 0px; font-family: &amp;quot;PingFang SC&amp;quot;, &amp;quot;Microsoft YaHei&amp;quot;, SimHei, Arial, SimSun; overflow-wrap: break-word; color: rgb(34, 34, 38); word-break: break-all; font-variant-ligatures: common-ligatures; text-align: start; background-color: rgb(255, 255, 255);&quot; id=&quot;articleContentId&quot; class=&quot;title-article&quot;&gt;&lt;font style=&quot;font-size: 14px;&quot;&gt;Stacked Dense U-Nets&lt;/font&gt;&lt;/h1&gt;" style="text;html=1;align=center;verticalAlign=middle;resizable=0;points=[];autosize=1;strokeColor=none;fillColor=none;" vertex="1" parent="iiZBQHs3JOUuA9xSX9nN-28">
          <mxGeometry x="23.5" width="180" height="40" as="geometry" />
        </mxCell>
        <mxCell id="iiZBQHs3JOUuA9xSX9nN-29" value="" style="swimlane;startSize=0;" vertex="1" parent="1">
          <mxGeometry x="550" y="490" width="330" height="150" as="geometry" />
        </mxCell>
        <mxCell id="iiZBQHs3JOUuA9xSX9nN-30" value="" style="shape=flexArrow;endArrow=classic;html=1;rounded=0;exitX=0.168;exitY=-0.012;exitDx=0;exitDy=0;exitPerimeter=0;entryX=0.104;entryY=1.011;entryDx=0;entryDy=0;entryPerimeter=0;" edge="1" parent="1" source="iiZBQHs3JOUuA9xSX9nN-1" target="iiZBQHs3JOUuA9xSX9nN-25">
          <mxGeometry width="50" height="50" relative="1" as="geometry">
            <mxPoint x="150" y="280" as="sourcePoint" />
            <mxPoint x="120" y="210" as="targetPoint" />
          </mxGeometry>
        </mxCell>
      </root>
    </mxGraphModel>
  </diagram>
</mxfile>
